<svg width="100" height="100" xmlns="http://www.w3.org/2000/svg">
  <defs>
    <pattern id="smallGrid" width="10" height="10" patternUnits="userSpaceOnUse">
      <path d="M 10 0 L 0 0 0 10" fill="none" stroke="#ff9933" stroke-width="0.5" stroke-opacity="0.1"/>
    </pattern>
    <pattern id="grid" width="100" height="100" patternUnits="userSpaceOnUse">
      <rect width="100" height="100" fill="url(#smallGrid)"/>
      <path d="M 100 0 L 0 0 0 100" fill="none" stroke="#138808" stroke-width="1" stroke-opacity="0.1"/>
    </pattern>
  </defs>
  
  <rect width="100" height="100" fill="url(#grid)" />
  
  <!-- Om Symbol -->
  <path d="M50,30 C45,30 40,35 40,40 C40,45 45,50 50,50 C55,50 60,45 60,40 C60,35 55,30 50,30 Z" fill="#000080" fill-opacity="0.05"/>
  <path d="M50,20 C40,20 30,30 30,40 C30,50 40,60 50,60 C60,60 70,50 70,40 C70,30 60,20 50,20 Z M50,55 C42.5,55 35,47.5 35,40 C35,32.5 42.5,25 50,25 C57.5,25 65,32.5 65,40 C65,47.5 57.5,55 50,55 Z" fill="#000080" fill-opacity="0.05"/>
  <path d="M50,65 C45,65 40,70 40,75 C40,80 45,85 50,85 C55,85 60,80 60,75 C60,70 55,65 50,65 Z" fill="#000080" fill-opacity="0.05"/>
  <path d="M30,75 L70,75" stroke="#000080" stroke-width="2" stroke-opacity="0.05"/>
  
  <!-- Peacock Feather -->
  <path d="M80,80 C75,75 70,70 75,65 C80,60 85,65 80,70 C75,75 80,80 80,80 Z" fill="#138808" fill-opacity="0.05"/>
  
  <!-- Lotus -->
  <path d="M20,20 C15,15 10,15 15,10 C20,5 25,10 20,15 C15,20 20,20 20,20 Z" fill="#ff9933" fill-opacity="0.05"/>
</svg>