<svg xmlns="http://www.w3.org/2000/svg" viewBox="0 0 100 100">
  <circle cx="50" cy="50" r="45" fill="#f5f0e1" />
  <path d="M50 10C27.91 10 10 27.91 10 50s17.91 40 40 40 40-17.91 40-40S72.09 10 50 10zm0 75c-19.33 0-35-15.67-35-35s15.67-35 35-35 35 15.67 35 35-15.67 35-35 35z" fill="#ff9933"/>
  <path d="M65 35c0 8.28-6.72 15-15 15s-15-6.72-15-15 6.72-15 15-15 15 6.72 15 15zm-5 0c0-5.52-4.48-10-10-10s-10 4.48-10 10 4.48 10 10 10 10-4.48 10-10z" fill="#138808"/>
  <path d="M50 55c-11.05 0-20 8.95-20 20 0 1.1.9 2 2 2h36c1.1 0 2-.9 2-2 0-11.05-8.95-20-20-20zm0 5c8.27 0 15 6.73 15 15H35c0-8.27 6.73-15 15-15z" fill="#000080"/>
  <path d="M50 30c-2.76 0-5 2.24-5 5s2.24 5 5 5 5-2.24 5-5-2.24-5-5-5z" fill="#000080"/>
</svg>