<svg xmlns="http://www.w3.org/2000/svg" viewBox="0 0 512 512">
  <circle cx="256" cy="256" r="230" fill="#f5f0e1" />
  <path d="M256 51.2c-113.07 0-204.8 91.73-204.8 204.8s91.73 204.8 204.8 204.8 204.8-91.73 204.8-204.8S369.07 51.2 256 51.2zm0 384c-98.97 0-179.2-80.23-179.2-179.2S157.03 76.8 256 76.8 435.2 157.03 435.2 256 354.97 435.2 256 435.2z" fill="#ff9933"/>
  <path d="M332.8 179.2c0 42.39-34.41 76.8-76.8 76.8s-76.8-34.41-76.8-76.8 34.41-76.8 76.8-76.8 76.8 34.41 76.8 76.8zm-25.6 0c0-28.26-22.94-51.2-51.2-51.2s-51.2 22.94-51.2 51.2 22.94 51.2 51.2 51.2 51.2-22.94 51.2-51.2z" fill="#138808"/>
  <path d="M256 281.6c-56.55 0-102.4 45.85-102.4 102.4 0 5.63 4.57 10.2 10.2 10.2h184.4c5.63 0 10.2-4.57 10.2-10.2 0-56.55-45.85-102.4-102.4-102.4zm0 25.6c42.39 0 76.8 34.41 76.8 76.8H179.2c0-42.39 34.41-76.8 76.8-76.8z" fill="#000080"/>
  <path d="M256 153.6c-14.14 0-25.6 11.46-25.6 25.6s11.46 25.6 25.6 25.6 25.6-11.46 25.6-25.6-11.46-25.6-25.6-25.6z" fill="#000080"/>
  <text x="256" y="480" font-family="'Poppins', sans-serif" font-size="36" text-anchor="middle" fill="#000080" font-weight="bold">ASK KRISHNA</text>
</svg>